<?xml version="1.0" encoding="UTF-8"?>
<svg id="Capa_1" data-name="Capa 1" xmlns="http://www.w3.org/2000/svg" viewBox="0 0 200 100">
  <defs>
    <style>
      .cls-1 {
        fill: #81bfda;
      }

      .cls-2 {
        fill: #fff;
      }

      .cls-3 {
        fill: #fada7a;
      }

      .cls-4 {
        fill: #f5f0cd;
      }
    </style>
  </defs>
  <path class="cls-2" d="M93.77,45.41c-.03-.22-.05-.44-.08-.67-.17-1.95-.26-4.57-.26-7.85s.09-6.02.26-8c.17-1.99.5-3.51.97-4.57.48-1.06,1.1-1.76,1.85-2.1.75-.34,1.75-.51,2.98-.51s2.22.17,2.98.51c.75.34,1.37,1.04,1.85,2.1.48,1.06.8,2.58.97,4.57.17,1.98.26,4.65.26,8s-.09,5.9-.26,7.85c-.03.34-.07.66-.11.97,2.37.65,4.69,1.68,6.87,3.11,2.94,1.94,5.35,4.28,7.21,6.87.99-1.75,1.78-3.75,2.34-6.03.86-3.52,1.28-7.78,1.28-12.77s-.43-9.15-1.28-12.67c-.86-3.52-2.22-6.41-4.11-8.67-1.88-2.26-4.31-3.92-7.29-4.98-2.97-1.06-6.55-1.59-10.72-1.59s-7.75.53-10.72,1.59c-2.97,1.06-5.4,2.72-7.28,4.98-1.88,2.26-3.25,5.15-4.11,8.67-.85,3.52-1.28,7.75-1.28,12.67s.43,9.25,1.28,12.77c.44,1.79,1.02,3.4,1.73,4.86,3.76-4.78,9.01-7.93,14.66-9.12Z"/>
  <path class="cls-1" d="M108.93,60.42c7.19,7.51,7.97,18.52,2.33,27.19-.39.6-1.78,2.06-1.69,2.67.09.65.81.88,1.36.65,2.65-1.1,6.67-5.06,8.27-7.41,8.38-12.3,5.24-27.43-7.16-35.59-11.77-7.75-27.49-3.7-34.72,8.23-.61,1-2.46,3.85.02,3.47,9.27-8.75,22.69-8.49,31.57.79Z"/>
  <path class="cls-4" d="M92.37,90.4c6.26,1,12.71-2.12,16.11-7.45,7-11-1.73-25.59-14.74-24.68-.84.06-4.04.57-4.6,1.01-.55.43-.66,1.18-.03,1.57.29.18,2.64.32,3.29.48,13.66,3.28,13.98,22.64.47,26.42-.94.26-3.63.19-3.15,1.59.26.75,1.9.96,2.65,1.07Z"/>
  <path class="cls-3" d="M98.81,79.43c1.04-3.08.05-6.87-2.42-9.02-.52-.46-2.04-1.68-2.74-1.4-1.28.52.19,1.78.59,2.41,3.59,5.7-2.94,12.62-9.16,9.11-.51-.29-.85-.86-1.51-.68-.39.11-.62.41-.58.82.03.27.55,1.02.74,1.27,4.26,5.56,12.84,4.13,15.07-2.51Z"/>
</svg>