<?xml version="1.0" encoding="UTF-8"?>
<svg id="Capa_1" data-name="Capa 1" xmlns="http://www.w3.org/2000/svg" viewBox="0 0 32.16 32.16">
  <defs>
    <style>
      .cls-1 {
        fill: #fff;
      }
    </style>
  </defs>
  <path class="cls-1" d="M25.2.18H6.96C3.23.18.18,3.23.18,6.96v18.23c0,3.73,3.05,6.79,6.79,6.79h18.23c3.73,0,6.79-3.05,6.79-6.79V6.96c0-3.73-3.05-6.79-6.79-6.79ZM30.13,24.39c0,3.16-2.59,5.75-5.75,5.75H7.77c-3.16,0-5.75-2.59-5.75-5.75V7.77c0-3.16,2.59-5.75,5.75-5.75h16.61c3.16,0,5.75,2.59,5.75,5.75v16.61Z"/>
  <rect class="cls-1" x="5.38" y="8.33" width="21.4" height="2.69" rx="1.22" ry="1.22"/>
  <rect class="cls-1" x="5.38" y="15.03" width="21.4" height="2.69" rx="1.22" ry="1.22"/>
  <rect class="cls-1" x="5.38" y="21.73" width="21.4" height="2.69" rx="1.22" ry="1.22"/>
</svg>